# xmcd
#
# Track frame offsets: 
#        150
#        18237
#        38952
#        58350
#        83887
#        102895
#        125147
#        140572
#        163917
#        183010
#
# Disc length: 2679 seconds
#
# Revision: 3
# Processed by: cddbd v1.5.2PL0 Copyright (c) Steve Scherf et al.
# Submitted via: ExactAudioCopy v1.0b1
#
DISCID=8a0a750a
DTITLE=具島 直子 - Quiet Emotion
DYEAR=1997
DGENRE=Soul
TTITLE0=Tell me oh mama
TTITLE1=予感
TTITLE2=Sunday
TTITLE3=no. no. no.
TTITLE4=まどろみ
TTITLE5=愛はどうして
TTITLE6=My flame
TTITLE7=So high So high
TTITLE8=かげろう
TTITLE9=Tell me oh mama - Remix -
EXTD=YEAR: 1997
EXTT0=
EXTT1=
EXTT2=
EXTT3=
EXTT4=
EXTT5=
EXTT6=
EXTT7=
EXTT8=
EXTT9=
PLAYORDER=
